<svg width="60" height="124" viewBox="0 0 60 124" fill="none" xmlns="http://www.w3.org/2000/svg">
<g clip-path="url(#clip0_3276_10439)">
<path fill-rule="evenodd" clip-rule="evenodd" d="M60 123C60 123.552 59.5523 124 59 124C58.4477 124 58 123.552 58 123V96.5932L32.3002 109H37.158C37.7103 109 38.158 109.448 38.158 110C38.158 110.552 37.7103 111 37.158 111H23C22.4477 111 22 110.552 22 110C22 109.448 22.4477 109 23 109H27.6998L2 96.5932V123C2 123.552 1.55228 124 1 124C0.447715 124 0 123.552 0 123V24.0195C0 23.0816 0.438587 22.1977 1.18543 21.6305L28.1938 1.11611C29.2604 0.305971 30.7349 0.301014 31.8069 1.10396L58.7985 21.3208C59.5548 21.8872 60 22.777 60 23.7219V123ZM30.6079 2.70473C30.2506 2.43708 29.7591 2.43873 29.4036 2.70878L2.39514 23.2231C2.14619 23.4122 2 23.7068 2 24.0195V94.3723L30 107.89L58 94.3723V23.7219C58 23.4069 57.8516 23.1104 57.5995 22.9215L30.6079 2.70473Z" fill="#1A1C1E"/>
</g>
<defs>
<clipPath id="clip0_3276_10439">
<rect width="60" height="124" fill="white"/>
</clipPath>
</defs>
</svg>
